<svg id="Capa_1" data-name="Capa 1" xmlns="http://www.w3.org/2000/svg" viewBox="0 0 302.13 167.11"><title>nube_01</title><path d="M-259.18,154.44h-3.34a25.59,25.59,0,0,1-12.89-8.6,1.35,1.35,0,0,0-1-.38c-8.73.27-16.72-6.81-18.38-15-.31-1.56-.34-3.17-.5-4.71a16.32,16.32,0,0,1-2.62,1.21c-3.43,1-7.62-.88-9.6-4.13a14.91,14.91,0,0,1-2.08-7.2c-.09-2.07,0-4.15,0-6.36l-1.13.44a24.34,24.34,0,0,1-15.2,1.33,4.34,4.34,0,0,1-3.76-4.37c-.15-2.2-.3-4.4-.46-6.68l-1.38.38c-3.49.92-7,1.34-10.46,0-4.39-1.73-6.08-4.78-5.26-9.38,0-.25.09-.51.11-.76.23-2.44-.7-4.07-3.09-4.58A20.78,20.78,0,0,0-356,85.2c-2.89.2-5.75.84-8.64,1.12-5.71.54-11.43.92-17.14,1.42-3.23.29-4.22-.18-5.64-3v-2c1-1.06,1.87-2.42,3.09-3.11a80.26,80.26,0,0,1,10-4.93,11.25,11.25,0,0,1,10.62.84,6.73,6.73,0,0,0,7.47.17,17.53,17.53,0,0,1,9.8-2c1,.07,2,.18,2.68.24a18.71,18.71,0,0,1,0-3.6c.64-3,3.16-4.92,6.78-5.34,1.58-.18,3.17-.25,4.62-.36A61.41,61.41,0,0,1-334.82,59a6.09,6.09,0,0,1,1.55-6.51,4.83,4.83,0,0,1,4-1.45,17.65,17.65,0,0,1-.61-2.69,7.47,7.47,0,0,1,5.58-7.43,18.78,18.78,0,0,1,5.45-.42,51.15,51.15,0,0,1,5.72.93,5.73,5.73,0,0,1,4.4-3.58,8.87,8.87,0,0,1,7.85,1.79,16.68,16.68,0,0,1,4.38,5.94c.69,1.46,1.3,3,1.95,4.48.34-.18.63-.36.93-.51,4-2,9.36.44,10.41,4.69.26,1.07.72,2.11.91,3.19a13,13,0,0,1,.28,3.76c-.64,5.08.09,9.73,3.77,13.6,1.32,1.39,2.59,2.85,3.9,4.26a10.5,10.5,0,0,0,.87.77,11.2,11.2,0,0,1,1.69-6.47,17.09,17.09,0,0,1,8-6.56c2-.88,4.07-1.63,6.15-2.46-7.14-4.42-8.26-15.44-2.15-21.2-5.21-2.53-8.58-6.54-9.31-12.34s1.55-10.51,6-14.25c-4.78-2.19-5.32-9-1.89-12.42A11,11,0,0,1-258.91,1c1.44-.25,2.92-.29,4.47-.43-.3-.37-.55-.65-.78-.95a7.53,7.53,0,0,1,3.37-11.76c.39-.14.77-.32,1.15-.49h3.09c4.4,1.37,7.23,5.16,11,7.41,4.12-4.37,8-6.5,12.4-6.9A17.94,17.94,0,0,1-205.9-2c.32.65.67.73,1.37.76a36.14,36.14,0,0,1,7.37.6,22.52,22.52,0,0,1,15.78,13c1.78,3.87,3.14,4.79,6.76,4.18,7.26-1.23,14.08,4.55,15.23,11,.17,1,.23,2,.36,3.06a13.12,13.12,0,0,1,8.28-4.34,34.54,34.54,0,0,1,7.4,0c5.46.58,10.24,2.67,13.81,7.05a36.75,36.75,0,0,0,3.43,3.83,5,5,0,0,0,2.53,1.23,11.29,11.29,0,0,1,5.79,2.54,25.67,25.67,0,0,1,6.14,7.83l3,5.49c1-2.92,3.32-3.86,5.82-4.23,4.92-.72,6.55.35,8.17,3.56a16.4,16.4,0,0,0,8.22,8,1.68,1.68,0,0,1,1.12,1.82,1.49,1.49,0,0,1-1.48,1.49,38.24,38.24,0,0,1-6.75.26,40.6,40.6,0,0,1-6.37-1.72c0,1.54-1.11,2.46-2.56,3a12.89,12.89,0,0,1-2.58.74c-2.32.38-4.69.52-7,1A21.2,21.2,0,0,0-123.49,75a14.33,14.33,0,0,1,2,2.88,6.26,6.26,0,0,1-3,7.57,17.71,17.71,0,0,1-5.14,1.39,40.41,40.41,0,0,1-5.29.05,8.56,8.56,0,0,1-2.82,6.31,12.28,12.28,0,0,1-6.78,3.4c-2.52.43-5.08.64-7.43.92.09,2.36.25,4.74.24,7.13a3.76,3.76,0,0,1-3.48,3.79,35.72,35.72,0,0,1-14.26-1c-3.31-.95-6.51-2.28-9.74-3.44-.85,3.17-2.88,4.5-6.3,3.85a11.94,11.94,0,0,1-2.67-.88,35.46,35.46,0,0,1-10.42-7.18,9.22,9.22,0,0,1-1-1.44l-.33.33c1.92,6.64-.31,12.3-4.88,15.75a36.46,36.46,0,0,1,2.79,2.63c2.87,3.33,1.62,6.86-2.67,7.84-2.5.57-4.83-.23-7.22-.65-1.65-.29-3.34-.39-5-.58-.22,3.17-2,4.83-4.88,4.83a5.58,5.58,0,0,1-4.31-2.2c-1.89-2.13-2.55-4.8-3.27-7.45-.56-2-1.25-4-1.88-6.06l-.38,0a12.18,12.18,0,0,1-6.45,8.5,12.8,12.8,0,0,1-10.77.92A8.78,8.78,0,0,1-249.5,135c3.29,4.26.07,11.8-6.13,12.11,1.09,2.52.54,4.95-1.52,6.36A14.71,14.71,0,0,1-259.18,154.44Z" transform="translate(387.47 12.67)"/></svg>